<svg width="50" height="50" viewBox="0 0 50 50" fill="none" xmlns="http://www.w3.org/2000/svg">
<path d="M37.5 37.5C44.4036 30.5964 44.4036 19.4036 37.5 12.5C30.5964 5.59644 19.4036 5.59644 12.5 12.5C5.59644 19.4036 5.59644 30.5964 12.5 37.5C19.4036 44.4036 30.5964 44.4036 37.5 37.5Z" fill="#EAFC52"/>
<path d="M34.5627 36.9964L33.9936 36.3532L31.9752 34.0691L25.3098 37.2906L25.23 40.9591L25.2266 41.0937C25.9997 41.0755 26.7706 40.966 27.5232 40.763C30.3285 40.3171 32.8898 39.1403 35.0063 37.4343L34.5809 36.9804L34.5627 36.9964Z" fill="black"/>
<path d="M18.571 33.4448L24.6663 36.3915L24.5967 33.1882L20.1333 31.6772L18.571 33.4448Z" fill="black"/>
<path d="M25.3284 36.3903L31.4236 33.4448L29.8602 31.6772L25.3979 33.1882L25.3284 36.3903Z" fill="black"/>
<path d="M29.7121 28.9238L29.6984 28.9398C29.3004 29.3936 28.7861 29.7312 28.2114 29.9171L25.4505 30.8088L25.4175 32.3369L29.7543 30.8681L37.0423 22.4409C36.7218 22.1569 36.4698 21.8057 36.3056 21.4111L29.7121 28.9238Z" fill="black"/>
<path d="M19.4771 31.2094L12.2986 22.9087L12.0238 23.09C11.0784 23.7126 10.2357 24.4801 9.5298 25.365L9.06226 25.9512C9.0805 26.2579 9.10672 26.5635 9.14208 26.8657C9.6062 30.8433 11.5311 34.375 14.3683 36.9077L15.4391 35.7788L19.4771 31.2094Z" fill="black"/>
<path d="M40.4642 25.365C39.7572 24.4801 38.9156 23.7126 37.9702 23.09L37.6954 22.9087L30.5168 31.2094L34.5549 35.7788L35.6177 36.9134C38.4583 34.3796 40.3866 30.8456 40.8508 26.8646C40.8861 26.5624 40.9123 26.2579 40.9306 25.95L40.4642 25.365Z" fill="black"/>
<path d="M24.6877 37.2906L18.0212 34.0691L16.0027 36.3532L15.4337 36.9964L15.4097 36.9759L14.981 37.4263C17.0997 39.1357 19.6644 40.316 22.4731 40.7619C23.2257 40.9648 23.9966 41.0743 24.7698 41.0926L24.7664 40.958L24.6877 37.2906Z" fill="black"/>
<path d="M24.5795 32.3369L24.5464 30.8088L21.8358 29.933L21.7856 29.9171C21.2109 29.7312 20.6977 29.3936 20.2986 28.9398L20.2644 28.8999L13.6925 21.4111C13.5283 21.8057 13.2763 22.1569 12.9558 22.4397L20.2438 30.867L24.5795 32.3369Z" fill="black"/>
<path d="M29.2424 28.2447L36.0424 20.496C35.804 19.6293 35.4231 18.8083 34.9146 18.0659L34.6728 17.7135C34.4082 17.3098 34.2497 16.8469 34.2121 16.3668L34.1585 15.6826C34.0479 14.2639 33.8221 12.8567 33.4834 11.4758C33.4309 11.2614 33.3762 11.047 33.318 10.8326L33.0238 9.75041C32.952 9.48813 32.8562 9.23382 32.7387 8.99093C32.5415 8.58496 32.2803 8.21092 31.9656 7.88364C30.3246 6.17994 28.3769 4.80125 26.225 3.82054L25.8829 3.66545C25.6229 3.54686 25.3446 3.48642 25.0664 3.47729L25.1987 7.32144L25.258 9.03768L25.445 14.5103C25.5841 14.492 25.7233 14.4647 25.859 14.4282L29.1443 13.5546C29.3496 13.4999 29.5594 13.4725 29.7704 13.4725C30.9028 13.4725 31.8755 14.2434 32.1355 15.3461L32.7901 18.1229C32.968 18.8767 32.8733 19.6681 32.5232 20.3512C31.4456 22.4563 29.9631 24.274 28.118 25.7531C27.7405 26.0553 27.3084 26.2879 26.8328 26.443L26.1041 26.6802C25.7472 26.7965 25.3754 26.8558 24.9991 26.8558C24.6239 26.8558 24.2522 26.7965 23.8941 26.6802L23.1654 26.443C22.6876 26.2879 22.2474 26.0484 21.8563 25.7337C20.0203 24.2558 18.5447 22.4415 17.4716 20.3432C17.1249 19.6658 17.0314 18.8767 17.2093 18.1241L17.8639 15.3473C18.1239 14.2446 19.0966 13.4737 20.229 13.4737C20.44 13.4737 20.6498 13.501 20.8551 13.5558L24.1404 14.4293C24.2773 14.4658 24.4153 14.4932 24.5544 14.5114L24.7414 9.03882L24.7996 7.32715L24.9318 3.47844C24.6525 3.48756 24.3742 3.548 24.1142 3.66659C21.8506 4.69748 19.79 6.12635 18.0315 7.88478C17.6324 8.28391 17.3245 8.76286 17.1227 9.28742C17.0736 9.414 17.0292 9.54286 16.9938 9.67514L16.6779 10.8349C16.6198 11.0481 16.565 11.2625 16.5126 11.4769C16.1739 12.8579 15.9481 14.2651 15.8375 15.6837L15.7839 16.3679C15.7463 16.8491 15.5877 17.3121 15.3232 17.7147L15.0814 18.067C14.5728 18.8094 14.1931 19.6305 13.9536 20.4971L20.7536 28.2459C21.1516 28.6997 21.6659 29.0373 22.2406 29.2232L24.998 30.1138L27.7554 29.2232C28.3301 29.0362 28.8444 28.6986 29.2424 28.2447Z" fill="black"/>
<path d="M24.1964 15.2636C24.1086 15.2465 24.0208 15.226 23.933 15.2032L20.6476 14.3296C20.5986 14.316 20.5484 14.3068 20.4994 14.2977C20.488 14.2954 20.4777 14.2943 20.4663 14.292C20.4184 14.2852 20.3694 14.2795 20.3215 14.2772C20.3146 14.2772 20.3066 14.2772 20.2998 14.276C20.2759 14.2749 20.2519 14.2738 20.228 14.2738C20.2131 14.2738 20.1983 14.2749 20.1823 14.276C20.163 14.276 20.1436 14.2772 20.1253 14.2783C20.0922 14.2806 20.0592 14.284 20.0261 14.2886C20.009 14.2909 19.9919 14.292 19.9748 14.2954C19.9349 14.3023 19.8961 14.3103 19.8562 14.3194C19.8471 14.3217 19.8368 14.3228 19.8277 14.3251C19.7798 14.3376 19.7319 14.3524 19.6851 14.3684C19.6726 14.373 19.6612 14.3775 19.6498 14.3821C19.6156 14.3958 19.5814 14.4095 19.5483 14.4243C19.5323 14.4311 19.5175 14.4391 19.5015 14.4471C19.473 14.4619 19.4434 14.4767 19.416 14.4927C19.4001 14.5018 19.3841 14.511 19.3693 14.5212C19.3419 14.5383 19.3157 14.5566 19.2883 14.5748C19.2735 14.5851 19.2598 14.5953 19.245 14.6056C19.2165 14.6273 19.1879 14.6512 19.1606 14.674C19.1503 14.6832 19.1401 14.6911 19.1298 14.7003C19.0933 14.7333 19.0579 14.7687 19.0237 14.8052C19.018 14.812 19.0123 14.8189 19.0066 14.8257C18.9793 14.8565 18.953 14.8884 18.9279 14.9203C18.9177 14.934 18.9086 14.9477 18.8983 14.9625C18.8789 14.9899 18.8607 15.0173 18.8424 15.0458C18.8322 15.0618 18.823 15.0789 18.8139 15.0948C18.7979 15.1233 18.782 15.1518 18.7683 15.1815C18.7603 15.1986 18.7512 15.2157 18.7432 15.2328C18.7284 15.2647 18.7158 15.2978 18.7033 15.3309C18.6976 15.3468 18.6907 15.3617 18.685 15.3776C18.6679 15.4267 18.6531 15.478 18.6406 15.5293L18.5163 16.0584L17.9871 18.3049C17.97 18.3756 17.9575 18.4463 17.9472 18.517C17.9267 18.6584 17.9187 18.7998 17.9222 18.9413C17.9222 18.9424 17.9222 18.9435 17.9222 18.9447C17.9244 19.0165 17.929 19.0872 17.937 19.1579C17.97 19.4407 18.0521 19.7178 18.1833 19.9756C18.3099 20.2242 18.4433 20.4682 18.5824 20.7088C18.9314 21.3098 19.3179 21.8868 19.741 22.4353C19.8254 22.5448 19.9121 22.6543 19.9987 22.7615C20.6978 23.6213 21.4881 24.4081 22.3559 25.1072C22.6706 25.3603 23.0275 25.5542 23.4107 25.6785L24.1394 25.9157C24.2785 25.9613 24.4199 25.9955 24.5636 26.0172C24.7073 26.04 24.851 26.0514 24.9958 26.0514C25.1406 26.0514 25.2843 26.04 25.428 26.0172C25.5717 25.9944 25.7131 25.9602 25.8522 25.9157L26.5809 25.6785C26.6071 25.6705 26.6311 25.6591 26.6573 25.65C26.7873 25.6032 26.9139 25.5508 27.037 25.4892C27.2412 25.3877 27.435 25.268 27.6141 25.1254C27.9413 24.8631 28.2572 24.5883 28.5617 24.3021C28.9677 23.9201 29.352 23.5175 29.7146 23.0956C30.0772 22.6736 30.4171 22.2335 30.7341 21.7762C30.9713 21.4329 31.1959 21.0806 31.4058 20.7179C31.546 20.4773 31.6794 20.2321 31.8071 19.9824C32.0056 19.5947 32.0934 19.1625 32.0694 18.7314C32.0615 18.5877 32.0409 18.4441 32.0067 18.3027L31.3521 15.5259C31.3396 15.4734 31.3248 15.4232 31.3077 15.3742C31.302 15.3582 31.2963 15.3434 31.2894 15.3275C31.2769 15.2944 31.2643 15.2613 31.2495 15.2294C31.2415 15.2123 31.2335 15.1952 31.2244 15.1781C31.2096 15.1484 31.1948 15.1199 31.1788 15.0914C31.1697 15.0743 31.1594 15.0583 31.1492 15.0424C31.1321 15.0139 31.1127 14.9865 31.0944 14.9603C31.0842 14.9466 31.075 14.9318 31.0636 14.9181C31.0397 14.8861 31.0135 14.8553 30.9872 14.8246C30.9804 14.8177 30.9747 14.8097 30.969 14.8029C30.9359 14.7664 30.9006 14.731 30.8641 14.698C30.8538 14.6889 30.8424 14.6797 30.8321 14.6706C30.8059 14.6478 30.7786 14.625 30.75 14.6033C30.7352 14.5919 30.7204 14.5817 30.7056 14.5714C30.6793 14.5532 30.6531 14.536 30.6269 14.5189C30.6109 14.5087 30.595 14.4996 30.5779 14.4893C30.5505 14.4733 30.522 14.4585 30.4935 14.4448C30.4775 14.4368 30.4615 14.4289 30.4456 14.4209C30.4125 14.406 30.3794 14.3924 30.3464 14.3798C30.3338 14.3753 30.3213 14.3696 30.3087 14.365C30.262 14.349 30.2152 14.3342 30.1673 14.3217C30.1571 14.3194 30.1468 14.3171 30.1365 14.3148C30.0978 14.3057 30.059 14.2977 30.0202 14.292C30.0031 14.2897 29.986 14.2874 29.9678 14.2852C29.9347 14.2806 29.9016 14.2772 29.8685 14.276C29.8492 14.2749 29.8309 14.2738 29.8115 14.2738C29.7967 14.2738 29.7819 14.2715 29.7659 14.2715C29.742 14.2715 29.718 14.2726 29.6941 14.2738C29.6872 14.2738 29.6792 14.2738 29.6724 14.2749C29.6245 14.2772 29.5755 14.2829 29.5276 14.2897C29.5162 14.2909 29.5059 14.2932 29.4945 14.2954C29.4455 14.3034 29.3953 14.3137 29.3463 14.3274L26.0609 15.2009C25.9742 15.2237 25.8864 15.2442 25.7975 15.2613C25.599 15.3001 25.3983 15.3252 25.1976 15.3343C25.1304 15.3377 25.0631 15.3389 24.9969 15.3389C24.908 15.3389 24.8179 15.3354 24.7289 15.3297C24.5511 15.3206 24.372 15.2978 24.1964 15.2636ZM23.6388 16.9319C23.6388 16.9319 23.2191 17.184 22.6763 17.3117C22.1198 17.4417 21.5462 17.1669 21.2771 16.6628L21.1345 16.3971L23.6388 16.9319ZM24.7267 24.8415C24.3766 24.7719 24.0493 24.6168 23.7722 24.3922L22.3422 23.2279C21.4379 22.4912 20.8175 21.4637 20.5872 20.3199L20.0101 17.4519C20.781 19.0747 23.5407 19.7178 24.5887 19.9071L24.9376 24.8848L24.7267 24.8415ZM28.8616 16.3971L28.7191 16.6628C28.4488 17.1669 27.8763 17.4417 27.3198 17.3117C26.777 17.1851 26.3574 16.9319 26.3574 16.9319L28.8616 16.3971ZM29.9837 17.4508L29.4078 20.3188C29.1786 21.4626 28.5583 22.49 27.6528 23.2267L26.2228 24.391C25.9457 24.6168 25.6184 24.7708 25.2695 24.8403L25.0574 24.8825L25.4063 19.9049C26.4543 19.7167 29.214 19.0735 29.9837 17.4508Z" fill="black"/>
<path d="M21.856 25.7325C22.2471 26.0472 22.6873 26.2855 23.1651 26.4418L23.8938 26.679C24.2508 26.7953 24.6225 26.8546 24.9988 26.8546C25.374 26.8546 25.7458 26.7953 26.1038 26.679L26.8325 26.4418C27.3081 26.2867 27.7402 26.0552 28.1177 25.7518C29.9628 24.2728 31.4453 22.4551 32.5229 20.35C32.873 19.6669 32.9665 18.8766 32.7898 18.1217L32.1352 15.3449C31.8752 14.2422 30.9025 13.4713 29.7701 13.4713C29.5591 13.4713 29.3493 13.4987 29.144 13.5534L25.8587 14.4269C25.723 14.4634 25.5838 14.4908 25.4447 14.509L25.2577 9.03647L25.1984 7.32023L25.0661 3.47608C25.0638 3.47608 25.0615 3.47608 25.0604 3.47608C25.0399 3.47494 25.0205 3.47266 25 3.47266C24.9783 3.47266 24.9566 3.47494 24.935 3.47608C24.9338 3.47608 24.9338 3.47608 24.9327 3.47608L24.8004 7.32479L24.7422 9.03647L24.5552 14.509C24.4161 14.4908 24.277 14.4634 24.1413 14.4269L20.8559 13.5534C20.6506 13.4987 20.4408 13.4713 20.2298 13.4713C19.0975 13.4713 18.1247 14.2422 17.8647 15.3449L17.2102 18.1217C17.0323 18.8755 17.1258 19.6635 17.4725 20.3408C18.5444 22.4414 20.0189 24.2546 21.856 25.7325ZM17.9229 18.9439C17.9195 18.8025 17.9275 18.66 17.948 18.5197C17.9583 18.449 17.9719 18.3783 17.9879 18.3076L18.517 16.0611L18.6413 15.5319C18.6539 15.4795 18.6687 15.4293 18.6858 15.3803C18.6915 15.3643 18.6972 15.3495 18.704 15.3335C18.7166 15.3005 18.7291 15.2674 18.744 15.2355C18.7519 15.2184 18.7599 15.2012 18.769 15.1841C18.7839 15.1545 18.7987 15.126 18.8147 15.0975C18.8238 15.0804 18.834 15.0644 18.8432 15.0484C18.8603 15.0199 18.8797 14.9926 18.899 14.9652C18.9093 14.9515 18.9184 14.9367 18.9287 14.923C18.9538 14.8899 18.98 14.8591 19.0074 14.8283C19.0131 14.8215 19.0188 14.8147 19.0245 14.8078C19.0575 14.7713 19.0929 14.736 19.1305 14.7029C19.1408 14.6938 19.1511 14.6858 19.1613 14.6767C19.1887 14.6527 19.2172 14.6299 19.2457 14.6083C19.2594 14.598 19.2742 14.5877 19.2891 14.5775C19.3153 14.5592 19.3426 14.541 19.37 14.5239C19.386 14.5136 19.4008 14.5045 19.4168 14.4954C19.4453 14.4794 19.4738 14.4646 19.5023 14.4497C19.5183 14.4418 19.5331 14.4338 19.549 14.4269C19.5821 14.4121 19.6163 14.3973 19.6505 14.3847C19.6619 14.3802 19.6745 14.3745 19.6859 14.3711C19.7326 14.354 19.7805 14.3403 19.8284 14.3277C19.8376 14.3254 19.8478 14.3243 19.8569 14.322C19.8957 14.3129 19.9356 14.3049 19.9755 14.2981C19.9927 14.2958 20.0098 14.2935 20.0269 14.2912C20.0599 14.2867 20.093 14.2833 20.1261 14.281C20.1455 14.2798 20.1637 14.2787 20.1831 14.2787C20.1979 14.2787 20.2127 14.2764 20.2287 14.2764C20.2527 14.2764 20.2766 14.2776 20.3005 14.2787C20.3074 14.2787 20.3154 14.2787 20.3222 14.2798C20.3701 14.2821 20.418 14.2878 20.467 14.2947C20.4784 14.2958 20.4887 14.2981 20.5001 14.3004C20.5491 14.3083 20.5993 14.3186 20.6483 14.3323L23.9337 15.2058C24.0204 15.2286 24.1082 15.2491 24.1971 15.2662C24.3739 15.3016 24.5518 15.3244 24.7308 15.3358C24.8198 15.3415 24.9099 15.3449 24.9988 15.3449C25.0661 15.3449 25.1334 15.3438 25.1995 15.3404C25.4002 15.3301 25.6009 15.3062 25.7994 15.2674C25.8872 15.2503 25.975 15.2298 26.0628 15.2069L29.3481 14.3334C29.3972 14.3197 29.4474 14.3106 29.4964 14.3015C29.5078 14.2992 29.5181 14.2981 29.5295 14.2958C29.5774 14.289 29.6264 14.2833 29.6743 14.281C29.6811 14.281 29.6891 14.281 29.696 14.2798C29.7199 14.2787 29.7439 14.2776 29.7678 14.2776C29.7826 14.2776 29.7974 14.2787 29.8134 14.2798C29.8328 14.2798 29.8522 14.281 29.8704 14.2821C29.9035 14.2844 29.9366 14.2878 29.9696 14.2912C29.9867 14.2935 30.005 14.2947 30.0221 14.2981C30.0609 14.3038 30.0997 14.3118 30.1384 14.3209C30.1487 14.3232 30.1589 14.3243 30.1692 14.3277C30.2171 14.3403 30.265 14.3551 30.3106 14.3711C30.3232 14.3756 30.3357 14.3813 30.3482 14.3859C30.3813 14.3984 30.4155 14.4121 30.4475 14.4269C30.4634 14.4349 30.4794 14.4429 30.4954 14.4509C30.5239 14.4646 30.5512 14.4794 30.5797 14.4954C30.5957 14.5045 30.6128 14.5147 30.6288 14.525C30.655 14.5421 30.6812 14.5592 30.7075 14.5775C30.7223 14.5877 30.7371 14.598 30.7519 14.6094C30.7804 14.6311 30.8078 14.6539 30.834 14.6767C30.8443 14.6858 30.8557 14.6949 30.866 14.704C30.9025 14.7371 30.9378 14.7725 30.9709 14.809C30.9777 14.8158 30.9834 14.8238 30.9891 14.8306C31.0154 14.8603 31.0416 14.8911 31.0655 14.9241C31.0758 14.9378 31.0861 14.9526 31.0963 14.9663C31.1157 14.9937 31.134 15.0211 31.1511 15.0484C31.1613 15.0644 31.1704 15.0815 31.1807 15.0975C31.1967 15.126 31.2115 15.1545 31.2263 15.1841C31.2343 15.2012 31.2434 15.2184 31.2514 15.2355C31.2662 15.2674 31.2788 15.3005 31.2913 15.3335C31.297 15.3495 31.3039 15.3643 31.3096 15.3803C31.3267 15.4293 31.3415 15.4806 31.354 15.5319L32.0086 18.3087C32.0417 18.4501 32.0622 18.5938 32.0713 18.7375C32.0964 19.1686 32.0075 19.6007 31.809 19.9885C31.6813 20.2371 31.5479 20.4822 31.4076 20.724C31.1978 21.0855 30.9732 21.439 30.736 21.7823C30.419 22.2395 30.0791 22.6809 29.7165 23.1016C29.3538 23.5236 28.9684 23.9261 28.5636 24.3081C28.2591 24.5944 27.9432 24.8692 27.616 25.1315C27.4381 25.274 27.243 25.3938 27.0389 25.4953C26.9158 25.5568 26.7892 25.6093 26.6592 25.6561C26.6341 25.6652 26.609 25.6766 26.5828 25.6846L25.8541 25.9218C25.715 25.9674 25.5736 26.0016 25.4299 26.0232C25.2862 26.0461 25.1425 26.0575 24.9977 26.0575C24.8529 26.0575 24.7092 26.0461 24.5655 26.0232C24.4218 26.0004 24.2804 25.9662 24.1413 25.9218L23.4126 25.6846C23.0294 25.5591 22.6713 25.3664 22.3577 25.1132C21.4899 24.4142 20.6997 23.6274 20.0006 22.7675C19.9128 22.6603 19.8273 22.5509 19.7429 22.4414C19.3198 21.8929 18.9333 21.3158 18.5843 20.7149C18.4452 20.4743 18.3118 20.2302 18.1852 19.9816C18.054 19.7239 17.9719 19.4468 17.9389 19.164C17.9309 19.0933 17.9252 19.0226 17.924 18.9507C17.9229 18.9462 17.9229 18.945 17.9229 18.9439Z" fill="#EAFC52"/>
<path d="M26.2253 24.3931L27.6553 23.2288C28.5596 22.4921 29.1799 21.4647 29.4103 20.3209L29.9862 17.4529C29.2153 19.0756 26.4568 19.7188 25.4088 19.9081L25.0598 24.8857L25.2719 24.8435C25.6209 24.7717 25.9493 24.6178 26.2253 24.3931Z" fill="#EAFC52"/>
<path d="M22.3443 23.229L23.7743 24.3933C24.0514 24.6179 24.3787 24.773 24.7288 24.8426L24.9409 24.8848L24.592 19.9071C23.544 19.7178 20.7843 19.0758 20.0134 17.4519L20.5905 20.3199C20.8185 21.4637 21.4389 22.4923 22.3443 23.229Z" fill="#EAFC52"/>
<path d="M22.676 17.3118C23.2189 17.1852 23.6385 16.932 23.6385 16.932L21.1343 16.3972L21.2768 16.6629C21.5459 17.167 22.1184 17.4429 22.676 17.3118Z" fill="#EAFC52"/>
<path d="M28.7186 16.6629L28.8612 16.3972L26.3569 16.932C26.3569 16.932 26.7766 17.1841 27.3194 17.3118C27.8759 17.4418 28.4483 17.167 28.7186 16.6629Z" fill="#EAFC52"/>
<path d="M30.5181 31.2094L37.6966 22.9088L37.3591 22.6864C37.2462 22.6123 37.1424 22.5279 37.0421 22.4401L29.7541 30.8673L25.4173 32.3361L25.4503 30.808L28.2112 29.9163C28.7859 29.7304 29.299 29.3928 29.6982 28.939L29.7119 28.923L36.3043 21.4103C36.2438 21.2644 36.1925 21.115 36.1572 20.9588L36.1264 20.8265C36.1002 20.7147 36.0716 20.6041 36.042 20.4946L29.242 28.2434C28.844 28.6972 28.3297 29.0348 27.755 29.2207L24.9976 30.1113L22.2402 29.2207C21.6655 29.0348 21.1523 28.6972 20.7532 28.2434L13.9532 20.4946C13.9225 20.6041 13.8939 20.7147 13.8689 20.8265L13.8381 20.9588C13.8027 21.1138 13.7514 21.2644 13.691 21.4103L20.2628 28.8991L20.2971 28.939C20.695 29.3928 21.2094 29.7304 21.7841 29.9163L21.8343 29.9322L24.5449 30.808L24.578 32.3361L20.2412 30.8673L12.9531 22.4401C12.8528 22.5279 12.749 22.6123 12.6361 22.6864L12.2986 22.9088L19.4771 31.2094L15.4391 35.7789L14.3683 36.9078C14.5679 37.0857 14.772 37.259 14.9807 37.4267L15.4095 36.9762L16.0013 36.3536L18.0198 34.0695L24.6863 37.291L24.7661 40.9595L24.7695 41.0941V41.0952C24.8459 41.0975 24.9223 41.0998 24.9976 41.0998C25.074 41.0998 25.1504 41.0963 25.2257 41.0952V41.0941L25.2291 40.9595L25.3089 37.291L31.9743 34.0695L33.9928 36.3536L34.58 36.9808L35.0054 37.4347C35.2141 37.2659 35.4194 37.0937 35.6189 36.9147L34.5561 35.78L30.5181 31.2094ZM18.5717 33.4445L20.134 31.6758L24.5973 33.1868L24.6669 36.3901L18.5717 33.4445ZM25.3295 36.3901L25.399 33.188L29.8612 31.677L31.4235 33.4457L25.3295 36.3901Z" fill="#EAFC52"/>
</svg>
