<svg width="206" height="169" viewBox="0 0 206 169" fill="none" xmlns="http://www.w3.org/2000/svg">
<g filter="url(#filter0_bii_1_595)">
<circle cx="102.545" cy="65.5432" r="58.1863" transform="rotate(-37.2627 102.545 65.5432)" fill="#D9D9D9" fill-opacity="0.03"/>
</g>
<path d="M66.6158 65.0585C66.1645 65.1701 65.7354 65.183 65.3285 65.0971C64.9217 65.0111 64.5494 64.8513 64.2117 64.6177C63.8726 64.3781 63.5834 64.089 63.3441 63.7501C63.1092 63.404 62.9424 63.0316 62.8438 62.6331C62.7409 62.217 62.7192 61.8025 62.7788 61.3897C62.8369 60.9711 62.9646 60.5819 63.1617 60.2221C63.3573 59.8566 63.6158 59.5438 63.9371 59.284C64.2629 59.0168 64.6397 58.8303 65.0675 58.7245C65.5129 58.6143 65.9398 58.6051 66.3481 58.6969C66.7623 58.7872 67.136 58.9529 67.4693 59.1938C67.8084 59.4334 68.0947 59.7233 68.3281 60.0636C68.5674 60.4024 68.7357 60.7682 68.8328 61.1608C68.9358 61.577 68.9582 61.9943 68.9 62.413C68.8463 62.8243 68.7216 63.2128 68.5259 63.5784C68.3288 63.9381 68.0667 64.2486 67.7395 64.5099C67.4182 64.7698 67.0436 64.9527 66.6158 65.0585ZM63.846 62.3852C63.9185 62.6782 64.0357 62.9508 64.1976 63.2031C64.3596 63.4554 64.5523 63.6689 64.7759 63.8437C65.0039 64.0112 65.2563 64.126 65.5329 64.1882C65.8095 64.2504 66.1001 64.2438 66.4049 64.1684C66.7214 64.0901 66.9868 63.956 67.201 63.7662C67.4153 63.5764 67.5776 63.3527 67.6881 63.0953C67.803 62.8305 67.871 62.5525 67.8922 62.2611C67.912 61.9639 67.8878 61.6776 67.8197 61.4021C67.7472 61.1091 67.6307 60.8394 67.4702 60.593C67.3142 60.3393 67.1221 60.1287 66.8941 59.9612C66.6646 59.7878 66.4116 59.6701 66.135 59.6079C65.8643 59.5442 65.5794 59.5494 65.2805 59.6233C64.964 59.7016 64.6987 59.8357 64.4844 60.0255C64.2702 60.2154 64.1049 60.4397 63.9886 60.6986C63.8722 60.9575 63.8005 61.2334 63.7735 61.5262C63.7522 61.8175 63.7764 62.1038 63.846 62.3852ZM73.0572 63.4183L72.9159 62.8469C72.5306 62.9236 72.1483 62.9373 71.7692 62.888C71.3959 62.8373 71.0477 62.7244 70.7245 62.5494C70.4072 62.3729 70.1318 62.1394 69.8982 61.8489C69.669 61.551 69.5052 61.2029 69.4066 60.8043C69.3022 60.3824 69.2885 59.9877 69.3655 59.6203C69.4411 59.2471 69.5818 58.9107 69.7876 58.611C69.9919 58.3055 70.2451 58.0469 70.5473 57.8353C70.8553 57.6223 71.1917 57.4613 71.5566 57.3524L71.4392 56.8777L72.3798 56.645L72.4973 57.1197C72.8767 57.0445 73.2531 57.0322 73.6264 57.0829C73.9996 57.1336 74.3471 57.2436 74.6689 57.4128C74.9906 57.582 75.269 57.8147 75.504 58.1111C75.739 58.4075 75.9073 58.7608 76.0088 59.1711C76.1103 59.5813 76.1232 59.973 76.0476 60.3463C75.9764 60.7122 75.8387 61.0479 75.6344 61.3534C75.4286 61.6531 75.1725 61.9124 74.8659 62.1313C74.5579 62.3443 74.2214 62.5053 73.8565 62.6142L73.9979 63.1856L73.0572 63.4183ZM72.7443 62.0404L71.7809 58.1459C71.4453 58.2475 71.1542 58.416 70.9077 58.6511C70.6655 58.8789 70.4942 59.1545 70.3938 59.4779C70.2993 59.7998 70.3014 60.16 70.4 60.5586C70.4739 60.8575 70.5904 61.1148 70.7495 61.3304C70.913 61.5387 71.1 61.7039 71.3106 61.826C71.5255 61.9407 71.756 62.0174 72.0019 62.0561C72.2537 62.0934 72.5011 62.0881 72.7443 62.0404ZM73.641 61.8186C73.9708 61.7183 74.2567 61.5543 74.4989 61.3265C74.7396 61.0928 74.9101 60.8142 75.0105 60.4909C75.1094 60.1616 75.111 59.8036 75.0154 59.4168C74.9414 59.1179 74.8256 58.8636 74.668 58.6538C74.5162 58.4425 74.3321 58.2766 74.1157 58.156C73.8978 58.0296 73.666 57.947 73.42 57.9083C73.1741 57.8696 72.9267 57.8749 72.6776 57.924L73.641 61.8186ZM77.8947 62.2216L76.3506 55.9799L77.3352 55.7363L78.5357 60.589L80.6671 54.912L81.5902 54.6837L83.1343 60.9254L82.1497 61.169L80.9688 56.3954L78.853 61.9846L77.8947 62.2216ZM89.5609 60.5951L89.2673 59.4082L84.5816 60.5674L83.0374 54.3256L84.0221 54.0821L85.3509 59.4535L88.1377 58.7641L86.8089 53.3927L87.8023 53.1469L89.1311 58.5183L89.9223 58.3226L90.4312 60.3798L89.5609 60.5951ZM91.1846 58.9339L89.6405 52.6922L90.6251 52.4486L91.8256 57.3013L93.957 51.6243L94.88 51.396L96.4241 57.6378L95.4395 57.8813L94.2586 53.1077L92.1428 58.6969L91.1846 58.9339ZM98.1295 50.5921L99.0614 50.3616L103.032 56.0031L101.994 56.2597L100.915 54.7262L98.5066 55.322L98.2758 57.1797L97.2296 57.4385L98.1295 50.5921ZM100.541 54.0443L98.8629 51.5582L98.5019 54.5489L100.541 54.0443ZM107.857 54.8096L106.528 49.4381L104.444 49.9536L104.696 51.1227C104.868 51.9695 104.973 52.6807 105.009 53.2563C105.045 53.826 105.008 54.2922 104.898 54.6551C104.788 55.0121 104.608 55.2929 104.36 55.4972C104.111 55.6958 103.79 55.8436 103.397 55.9408L103.184 55.0792C103.401 55.0256 103.579 54.9286 103.718 54.7884C103.856 54.6423 103.948 54.4236 103.995 54.1323C104.047 53.8396 104.046 53.4479 103.993 52.9572C103.945 52.4592 103.84 51.8352 103.679 51.0851L103.306 49.3116L107.306 48.3221L108.85 54.5638L107.857 54.8096ZM110.269 54.2129L108.724 47.9711L109.709 47.7275L110.279 50.0308L111.677 49.685C112.134 49.5719 112.538 49.559 112.889 49.6463C113.239 49.7277 113.532 49.8946 113.769 50.1471C114.005 50.3995 114.173 50.725 114.272 51.1235C114.364 51.4986 114.369 51.8581 114.286 52.202C114.202 52.5401 114.029 52.8318 113.766 53.0771C113.503 53.3225 113.152 53.4995 112.713 53.6083L110.269 54.2129ZM111.051 53.1517L112.37 52.8255C112.645 52.7573 112.855 52.6495 112.999 52.502C113.148 52.353 113.242 52.1804 113.281 51.9843C113.318 51.7823 113.311 51.5788 113.261 51.3736C113.211 51.1744 113.127 50.9962 113.007 50.8393C112.893 50.6808 112.735 50.5706 112.533 50.5086C112.332 50.4466 112.084 50.4519 111.791 50.5244L110.481 50.8484L111.051 53.1517ZM119.318 45.3504L120.862 51.5921L119.869 51.8379L119.188 49.0862L116.041 49.8648L116.722 52.6165L115.737 52.86L114.193 46.6183L115.178 46.3747L115.824 48.9857L118.971 48.2071L118.325 45.5961L119.318 45.3504ZM122.27 51.2438L120.726 45.002L121.711 44.7585L122.281 47.0618L123.679 46.716C124.136 46.6029 124.54 46.59 124.891 46.6772C125.247 46.7572 125.54 46.9241 125.771 47.178C126.007 47.4304 126.175 47.7559 126.273 48.1545C126.366 48.5296 126.371 48.8891 126.288 49.233C126.204 49.571 126.031 49.8627 125.768 50.1081C125.505 50.3534 125.154 50.5305 124.714 50.6392L122.27 51.2438ZM123.053 50.1827L124.372 49.8564C124.647 49.7883 124.86 49.6797 125.009 49.5307C125.159 49.3817 125.25 49.2099 125.283 49.0152C125.32 48.8133 125.313 48.6097 125.262 48.4046C125.213 48.2053 125.129 48.0272 125.009 47.8702C124.895 47.7118 124.737 47.6016 124.535 47.5396C124.339 47.4761 124.092 47.4814 123.793 47.5553L122.483 47.8794L123.053 50.1827ZM127.747 49.8889L126.205 43.6559L127.199 43.4102L128.741 49.6432L127.747 49.8889ZM130.178 49.2875L128.634 43.0458L129.619 42.8022L130.819 47.6549L132.951 41.9779L133.874 41.7496L135.418 47.9913L134.433 48.2349L133.252 43.4613L131.137 49.0505L130.178 49.2875ZM131.15 41.9757C130.833 42.054 130.548 42.0716 130.295 42.0285C130.04 41.9795 129.833 41.8816 129.672 41.7348C129.51 41.5821 129.402 41.3974 129.348 41.1805L130.06 41.0044C130.1 41.1626 130.194 41.2917 130.343 41.3916C130.498 41.4901 130.722 41.5031 131.015 41.4306C131.302 41.3596 131.493 41.2502 131.587 41.1026C131.681 40.9549 131.705 40.7902 131.66 40.6085L132.373 40.4324C132.426 40.6492 132.417 40.863 132.345 41.0737C132.271 41.2785 132.133 41.4619 131.93 41.624C131.732 41.7787 131.472 41.8959 131.15 41.9757ZM82.8449 72.3286L81.3008 66.0869L86.2327 64.8668L87.7768 71.1086L86.7834 71.3543L85.4546 65.9829L82.5007 66.7136L83.8295 72.085L82.8449 72.3286ZM89.4472 64.0716L90.3791 63.841L94.3496 69.4826L93.3122 69.7392L92.2331 68.2056L89.8244 68.8015L89.5935 70.6591L88.5474 70.9179L89.4472 64.0716ZM91.8592 67.5238L90.1807 65.0376L89.8197 68.0283L91.8592 67.5238ZM95.1215 69.2916L93.5774 63.0498L96.1972 62.4017C96.4785 62.3322 96.7509 62.327 97.0143 62.3862C97.2777 62.4454 97.5213 62.55 97.7449 62.6999C97.9686 62.8498 98.1571 63.0333 98.3103 63.2504C98.4635 63.4675 98.5713 63.702 98.6336 63.9541C98.7192 64.2998 98.722 64.6506 98.642 65.0062C98.5665 65.3545 98.409 65.6609 98.1697 65.9253C97.9362 66.1883 97.6319 66.3662 97.2569 66.459L95.5689 66.8766L96.1061 69.048L95.1215 69.2916ZM95.3536 66.0063L96.98 65.6039C97.1676 65.5575 97.3193 65.4671 97.4353 65.3327C97.5499 65.1924 97.6235 65.0249 97.6562 64.8302C97.6948 64.6341 97.6865 64.4247 97.6314 64.202C97.5749 63.9734 97.478 63.7828 97.3407 63.6302C97.2034 63.4776 97.047 63.3732 96.8714 63.3171C96.7003 63.2537 96.5268 63.2438 96.3509 63.2873L94.7773 63.6766L95.3536 66.0063ZM103.85 61.4321L101.776 61.9453L103.104 67.3168L102.111 67.5625L100.782 62.1911L98.6986 62.7065L98.4833 61.8362L103.635 60.5618L103.85 61.4321ZM109.597 59.0868L111.141 65.3286L110.148 65.5743L109.467 62.8227L106.32 63.6012L107.001 66.3529L106.016 66.5965L104.472 60.3547L105.457 60.1111L106.103 62.7221L109.25 61.9435L108.604 59.3325L109.597 59.0868ZM116.615 63.0508L116.831 63.9211L112.549 64.9802L111.005 58.7385L115.207 57.6989L115.423 58.5692L112.205 59.3652L112.645 61.141L115.431 60.4516L115.634 61.2692L112.847 61.9586L113.319 63.8663L116.615 63.0508ZM117.846 63.6698L116.302 57.4281L118.922 56.78C119.203 56.7104 119.476 56.7052 119.739 56.7644C120.003 56.8236 120.246 56.9282 120.47 57.0781C120.694 57.228 120.882 57.4115 121.035 57.6286C121.188 57.8457 121.296 58.0803 121.359 58.3323C121.444 58.6781 121.447 59.0288 121.367 59.3844C121.291 59.7327 121.134 60.0391 120.895 60.3036C120.661 60.5666 120.357 60.7445 119.982 60.8373L118.294 61.2548L118.831 63.4263L117.846 63.6698ZM118.079 60.3845L119.705 59.9822C119.893 59.9358 120.044 59.8453 120.16 59.7109C120.275 59.5706 120.348 59.4031 120.381 59.2085C120.42 59.0123 120.411 58.8029 120.356 58.5802C120.3 58.3516 120.203 58.161 120.066 58.0084C119.928 57.8558 119.772 57.7514 119.596 57.6954C119.425 57.632 119.252 57.622 119.076 57.6655L117.502 58.0548L118.079 60.3845Z" fill="white"/>
<circle cx="102.545" cy="65.5432" r="57.7335" transform="rotate(-37.2627 102.545 65.5432)" stroke="#EBFC56" stroke-width="0.905623" stroke-dasharray="4.53 4.53"/>
<path d="M72.7926 84.4334L74.6565 81.283L77.8012 83.1608L78.8848 81.3271L73.9117 78.3566L70.9635 83.3421L72.7926 84.4334Z" fill="#EBFC56"/>
<path d="M70.1969 84.6359L69.1128 86.4692L70.9414 87.5612L72.0256 85.7279L70.1969 84.6359Z" fill="#EBFC56"/>
<path d="M73.3206 86.4987L76.464 88.3758L78.3285 85.223L80.1573 86.3134L80.1565 86.3146L77.2086 91.3011L72.236 88.3327L72.2335 88.3312L73.3206 86.4987Z" fill="#EBFC56"/>
<path d="M80.175 82.0977L79.0908 83.931L80.9195 85.023L82.0036 83.1897L80.175 82.0977Z" fill="#EBFC56"/>
<path d="M77.0362 84.452L75.181 83.3433L74.3678 84.7185L74.2735 84.8764L74.081 85.2019L74.0798 85.2055L74.0823 85.207L75.937 86.3136L77.0364 84.453L77.0374 84.4527L77.0362 84.452Z" fill="#EBFC56"/>
<path d="M83.4268 79.2756L86.5952 78.4692C87.3812 78.2692 88.0273 78.3203 88.5338 78.6236C88.9252 78.8582 89.1801 79.2081 89.298 79.6713L89.3029 79.6908C89.3529 79.8871 89.3725 80.0661 89.3629 80.2286C89.3522 80.3913 89.3227 80.5436 89.272 80.685C89.2222 80.8261 89.1556 80.9563 89.0722 81.0755C88.9887 81.1948 88.8934 81.3018 88.7879 81.3983C89.2212 81.4481 89.5848 81.5733 89.8777 81.7742C90.1705 81.9751 90.3746 82.3042 90.491 82.7612L90.4959 82.7807C90.5758 83.0946 90.5855 83.3839 90.5254 83.6506C90.4652 83.9164 90.3431 84.1565 90.1579 84.3702C89.974 84.5847 89.7338 84.7699 89.4382 84.929C89.1427 85.088 88.8033 85.2158 88.4205 85.3132L85.1737 86.1395L83.4268 79.2756ZM86.9838 81.3251C87.3157 81.2406 87.5648 81.1162 87.7311 80.952C87.8975 80.7877 87.9481 80.5778 87.8833 80.3232L87.8784 80.3037C87.8201 80.0747 87.6911 79.9214 87.4914 79.8437C87.2916 79.7661 87.0317 79.7669 86.713 79.848L85.2276 80.2261L85.5968 81.677C85.5971 81.678 86.9838 81.3251 86.9838 81.3251ZM88.0889 83.9888C88.4208 83.9043 88.6661 83.7777 88.8237 83.6091C88.9813 83.4405 89.0282 83.2282 88.9631 82.9726L88.9581 82.9532C88.8999 82.7242 88.7662 82.5655 88.556 82.4764C88.3458 82.3872 88.0458 82.3928 87.6549 82.4923L85.9169 82.9346L86.3013 84.4449L88.0889 83.9888Z" fill="#EBFC56"/>
<path d="M91.1113 77.3176L92.6151 76.9349L94.3623 83.7998L92.8586 84.1826L91.1113 77.3176Z" fill="#EBFC56"/>
<path d="M94.895 76.3556L96.2817 76.0027L100.561 79.4144L99.4847 75.1874L100.969 74.8096L102.716 81.6746L101.438 82L97.016 78.4788L98.1267 82.8427L96.6422 83.2205L94.895 76.3556Z" fill="#EBFC56"/>
<path d="M105.508 73.6019L106.895 73.249L111.585 79.4172L110.013 79.8173L108.996 78.4366L106.105 79.1722L105.872 80.8712L104.339 81.2614L105.508 73.6019ZM108.119 77.2401L106.644 75.2453L106.303 77.7023L108.119 77.2401Z" fill="#EBFC56"/>
<path d="M111.464 72.1389L112.851 71.786L117.129 75.1977L116.054 70.9708L117.538 70.593L119.285 77.4579L118.006 77.7834L113.585 74.2621L114.696 78.626L113.211 79.0038L111.464 72.1389Z" fill="#EBFC56"/>
<path d="M124.726 76.1977C124.224 76.3254 123.735 76.3518 123.259 76.2792C122.783 76.2065 122.348 76.0493 121.955 75.8119C121.562 75.5745 121.222 75.2624 120.937 74.8755C120.651 74.4889 120.446 74.05 120.322 73.5592L120.317 73.5398C120.192 73.049 120.162 72.5676 120.23 72.0944C120.297 71.6211 120.444 71.184 120.675 70.7803C120.905 70.3766 121.214 70.0266 121.603 69.7296C121.991 69.4326 122.45 69.2168 122.978 69.0825C123.296 69.0014 123.594 68.9539 123.871 68.9389C124.148 68.924 124.406 68.9357 124.644 68.972C124.882 69.0094 125.109 69.0692 125.324 69.1537C125.54 69.2382 125.746 69.3394 125.942 69.4559L125.267 70.8079C124.939 70.6334 124.619 70.5135 124.307 70.4469C123.995 70.3804 123.667 70.3909 123.322 70.4788C123.036 70.5516 122.784 70.6744 122.568 70.8481C122.352 71.0217 122.182 71.2285 122.055 71.4696C121.93 71.7105 121.851 71.9725 121.819 72.256C121.787 72.5396 121.808 72.8281 121.883 73.1216L121.888 73.141C121.963 73.4355 122.082 73.7011 122.247 73.937C122.411 74.1739 122.604 74.3687 122.826 74.5199C123.048 74.6725 123.297 74.7748 123.57 74.8271C123.844 74.8794 124.127 74.8683 124.419 74.7939C124.81 74.6944 125.122 74.5389 125.355 74.326C125.588 74.1142 125.807 73.8495 126.011 73.5331L127.215 74.2609C127.087 74.4959 126.948 74.712 126.798 74.9103C126.648 75.1085 126.473 75.2902 126.277 75.4556C126.079 75.6202 125.855 75.7655 125.602 75.8886C125.35 76.0094 125.057 76.1132 124.726 76.1977Z" fill="#EBFC56"/>
<path d="M127.521 68.0516L132.668 66.7418L133.01 68.0853L129.348 69.0174L129.702 70.41L132.925 69.5898L133.267 70.9334L130.044 71.7535L130.411 73.1952L134.122 72.2507L134.464 73.5942L129.269 74.9166L127.521 68.0516Z" fill="#EBFC56"/>
<defs>
<filter id="filter0_bii_1_595" x="36.5973" y="-0.404408" width="131.895" height="131.895" filterUnits="userSpaceOnUse" color-interpolation-filters="sRGB">
<feFlood flood-opacity="0" result="BackgroundImageFix"/>
<feGaussianBlur in="BackgroundImageFix" stdDeviation="1.31889"/>
<feComposite in2="SourceAlpha" operator="in" result="effect1_backgroundBlur_1_595"/>
<feBlend mode="normal" in="SourceGraphic" in2="effect1_backgroundBlur_1_595" result="shape"/>
<feColorMatrix in="SourceAlpha" type="matrix" values="0 0 0 0 0 0 0 0 0 0 0 0 0 0 0 0 0 0 127 0" result="hardAlpha"/>
<feOffset dx="-7.75817" dy="7.75817"/>
<feGaussianBlur stdDeviation="3.87908"/>
<feComposite in2="hardAlpha" operator="arithmetic" k2="-1" k3="1"/>
<feColorMatrix type="matrix" values="0 0 0 0 1 0 0 0 0 1 0 0 0 0 1 0 0 0 0.03 0"/>
<feBlend mode="normal" in2="shape" result="effect2_innerShadow_1_595"/>
<feColorMatrix in="SourceAlpha" type="matrix" values="0 0 0 0 0 0 0 0 0 0 0 0 0 0 0 0 0 0 127 0" result="hardAlpha"/>
<feOffset dx="7.75817" dy="-7.75817"/>
<feGaussianBlur stdDeviation="3.87908"/>
<feComposite in2="hardAlpha" operator="arithmetic" k2="-1" k3="1"/>
<feColorMatrix type="matrix" values="0 0 0 0 0.646745 0 0 0 0 0.646745 0 0 0 0 0.646745 0 0 0 0.03 0"/>
<feBlend mode="normal" in2="effect2_innerShadow_1_595" result="effect3_innerShadow_1_595"/>
</filter>
</defs>
</svg>
