<svg width="69" height="30" viewBox="0 0 69 30" fill="none" xmlns="http://www.w3.org/2000/svg">
<path d="M5.79256 21.4334L7.65647 18.283L10.8012 20.1608L11.8848 18.3271L6.91168 15.3566L3.96349 20.3421L5.79256 21.4334Z" fill="#EBFC56"/>
<path d="M3.19692 21.6359L2.11279 23.4692L3.94144 24.5612L5.02557 22.7279L3.19692 21.6359Z" fill="#EBFC56"/>
<path d="M6.32056 23.4987L9.46405 25.3758L11.3285 22.223L13.1573 23.3134L13.1565 23.3146L10.2086 28.3011L5.23602 25.3327L5.23347 25.3312L6.32056 23.4987Z" fill="#EBFC56"/>
<path d="M13.175 19.0977L12.0908 20.931L13.9195 22.023L15.0036 20.1897L13.175 19.0977Z" fill="#EBFC56"/>
<path d="M10.0362 21.452L8.181 20.3433L7.36778 21.7185L7.27354 21.8764L7.08104 22.2019L7.07978 22.2055L7.08234 22.207L8.93698 23.3136L10.0364 21.453L10.0374 21.4527L10.0362 21.452Z" fill="#EBFC56"/>
<path d="M16.4268 16.2756L19.5952 15.4692C20.3812 15.2692 21.0273 15.3203 21.5338 15.6236C21.9252 15.8582 22.1801 16.2081 22.298 16.6713L22.3029 16.6908C22.3529 16.8871 22.3725 17.0661 22.3629 17.2286C22.3522 17.3913 22.3227 17.5436 22.272 17.685C22.2222 17.8261 22.1556 17.9563 22.0722 18.0755C21.9887 18.1948 21.8934 18.3018 21.7879 18.3983C22.2212 18.4481 22.5848 18.5733 22.8777 18.7742C23.1705 18.9751 23.3746 19.3042 23.491 19.7612L23.4959 19.7807C23.5758 20.0946 23.5855 20.3839 23.5254 20.6506C23.4652 20.9164 23.3431 21.1565 23.1579 21.3702C22.974 21.5847 22.7338 21.7699 22.4382 21.929C22.1427 22.088 21.8033 22.2158 21.4205 22.3132L18.1737 23.1395L16.4268 16.2756ZM19.9838 18.3251C20.3157 18.2406 20.5648 18.1162 20.7311 17.952C20.8975 17.7877 20.9481 17.5778 20.8833 17.3232L20.8784 17.3037C20.8201 17.0747 20.6911 16.9214 20.4914 16.8437C20.2916 16.7661 20.0317 16.7669 19.713 16.848L18.2276 17.2261L18.5968 18.677C18.5971 18.678 19.9838 18.3251 19.9838 18.3251ZM21.0889 20.9888C21.4208 20.9043 21.6661 20.7777 21.8237 20.6091C21.9813 20.4405 22.0282 20.2282 21.9631 19.9726L21.9581 19.9532C21.8999 19.7242 21.7662 19.5655 21.556 19.4764C21.3458 19.3872 21.0458 19.3928 20.6549 19.4923L18.9169 19.9346L19.3013 21.4449L21.0889 20.9888Z" fill="#EBFC56"/>
<path d="M24.1113 14.3176L25.6151 13.9349L27.3623 20.7998L25.8586 21.1826L24.1113 14.3176Z" fill="#EBFC56"/>
<path d="M27.895 13.3556L29.2817 13.0027L33.5605 16.4144L32.4847 12.1874L33.9692 11.8096L35.7164 18.6746L34.4376 19L30.016 15.4788L31.1267 19.8427L29.6422 20.2205L27.895 13.3556Z" fill="#EBFC56"/>
<path d="M38.5082 10.6019L39.8949 10.249L44.5848 16.4172L43.0128 16.8173L41.9958 15.4366L39.1053 16.1722L38.8721 17.8712L37.3388 18.2614L38.5082 10.6019ZM41.1189 14.2401L39.6442 12.2453L39.3025 14.7023L41.1189 14.2401Z" fill="#EBFC56"/>
<path d="M44.4639 9.13892L45.8506 8.78599L50.1294 12.1977L49.0536 7.97077L50.538 7.59297L52.2852 14.4579L51.0065 14.7834L46.5848 11.2621L47.6955 15.626L46.2111 16.0038L44.4639 9.13892Z" fill="#EBFC56"/>
<path d="M57.7256 13.1977C57.2236 13.3254 56.7349 13.3518 56.259 13.2792C55.783 13.2065 55.3484 13.0493 54.9551 12.8119C54.5619 12.5745 54.2223 12.2624 53.9374 11.8755C53.6514 11.4889 53.4465 11.05 53.3216 10.5592L53.3166 10.5398C53.1917 10.049 53.1624 9.56763 53.2295 9.09438C53.2966 8.62113 53.4444 8.18395 53.6745 7.78027C53.9046 7.37659 54.2144 7.02664 54.6028 6.72964C54.9912 6.43264 55.4501 6.21677 55.9775 6.08254C56.2962 6.00144 56.5942 5.95391 56.8711 5.93894C57.1481 5.92398 57.4058 5.93568 57.6438 5.972C57.8821 6.00935 58.1087 6.06925 58.3243 6.15374C58.5398 6.23824 58.7455 6.33939 58.9421 6.45592L58.2672 7.80787C57.9388 7.63343 57.6188 7.51346 57.307 7.44693C56.9952 7.3804 56.6672 7.39093 56.3221 7.47877C56.036 7.55159 55.7843 7.67444 55.5683 7.84808C55.3523 8.02172 55.1816 8.22847 55.0555 8.46961C54.9303 8.7105 54.8506 8.97247 54.8187 9.25604C54.7868 9.5396 54.8082 9.82811 54.8829 10.1216L54.8878 10.141C54.9628 10.4355 55.0824 10.7011 55.2465 10.937C55.4109 11.1739 55.6036 11.3687 55.8264 11.5199C56.0484 11.6725 56.2967 11.7748 56.5702 11.8271C56.8437 11.8794 57.127 11.8683 57.4192 11.7939C57.8102 11.6944 58.1218 11.5389 58.355 11.326C58.5883 11.1142 58.8072 10.8495 59.0107 10.5331L60.2149 11.2609C60.0872 11.4959 59.9481 11.712 59.798 11.9103C59.6479 12.1085 59.473 12.2902 59.2766 12.4556C59.079 12.6202 58.8547 12.7655 58.602 12.8886C58.3498 13.0094 58.0575 13.1132 57.7256 13.1977Z" fill="#EBFC56"/>
<path d="M60.5215 5.05164L65.6681 3.74175L66.0101 5.08529L62.3479 6.01737L62.7023 7.40999L65.9247 6.58985L66.2666 7.93339L63.0443 8.75352L63.4112 10.1952L67.1222 9.25071L67.4642 10.5942L62.2687 11.9166L60.5215 5.05164Z" fill="#EBFC56"/>
</svg>
