<svg width="412" height="412" viewBox="0 0 412 412" fill="none" xmlns="http://www.w3.org/2000/svg">
<g filter="url(#filter0_bii_1_234)">
<circle cx="205.902" cy="205.901" r="116.835" transform="rotate(-37.2627 205.902 205.901)" fill="#D9D9D9" fill-opacity="0.03"/>
</g>
<path d="M133.5 203.888C132.594 204.112 131.732 204.138 130.915 203.966C130.098 203.793 129.351 203.472 128.673 203.003C127.992 202.522 127.411 201.941 126.93 201.261C126.459 200.566 126.124 199.818 125.926 199.018C125.719 198.183 125.676 197.35 125.795 196.522C125.912 195.681 126.168 194.899 126.564 194.177C126.957 193.443 127.476 192.815 128.121 192.293C128.775 191.757 129.532 191.382 130.391 191.17C131.285 190.949 132.143 190.93 132.962 191.114C133.794 191.296 134.544 191.628 135.214 192.112C135.895 192.593 136.469 193.175 136.938 193.859C137.419 194.539 137.757 195.273 137.952 196.062C138.158 196.897 138.203 197.736 138.086 198.576C137.979 199.402 137.728 200.182 137.335 200.916C136.94 201.639 136.413 202.262 135.756 202.787C135.111 203.309 134.359 203.676 133.5 203.888ZM127.938 198.52C128.084 199.109 128.319 199.656 128.644 200.163C128.97 200.669 129.357 201.098 129.806 201.449C130.263 201.785 130.77 202.016 131.325 202.141C131.881 202.266 132.464 202.252 133.076 202.101C133.712 201.944 134.245 201.675 134.675 201.293C135.105 200.912 135.431 200.463 135.653 199.946C135.884 199.415 136.02 198.856 136.063 198.271C136.103 197.674 136.054 197.1 135.917 196.546C135.772 195.958 135.538 195.416 135.216 194.922C134.902 194.412 134.517 193.989 134.059 193.653C133.598 193.305 133.09 193.069 132.534 192.944C131.991 192.816 131.419 192.826 130.819 192.975C130.183 193.132 129.65 193.401 129.22 193.782C128.79 194.163 128.458 194.614 128.225 195.134C127.991 195.654 127.847 196.208 127.793 196.795C127.75 197.38 127.799 197.955 127.938 198.52ZM146.434 200.595L146.15 199.447C145.376 199.601 144.609 199.629 143.848 199.53C143.098 199.428 142.399 199.202 141.75 198.85C141.113 198.496 140.56 198.027 140.091 197.443C139.631 196.845 139.302 196.146 139.104 195.346C138.894 194.499 138.867 193.706 139.021 192.969C139.173 192.219 139.456 191.544 139.869 190.942C140.279 190.328 140.787 189.809 141.394 189.384C142.013 188.957 142.688 188.633 143.421 188.415L143.185 187.462L145.074 186.994L145.31 187.948C146.071 187.797 146.827 187.772 147.577 187.874C148.326 187.976 149.024 188.196 149.67 188.536C150.316 188.876 150.875 189.343 151.347 189.938C151.819 190.533 152.157 191.243 152.36 192.067C152.564 192.89 152.59 193.677 152.438 194.426C152.295 195.161 152.019 195.835 151.609 196.449C151.196 197.05 150.681 197.571 150.066 198.01C149.447 198.438 148.772 198.761 148.039 198.98L148.323 200.128L146.434 200.595ZM145.806 197.828L143.871 190.008C143.197 190.212 142.613 190.55 142.118 191.023C141.631 191.48 141.288 192.033 141.086 192.683C140.896 193.329 140.9 194.052 141.098 194.853C141.247 195.453 141.481 195.969 141.8 196.402C142.128 196.821 142.504 197.152 142.927 197.397C143.358 197.628 143.821 197.782 144.315 197.86C144.82 197.934 145.317 197.924 145.806 197.828ZM147.606 197.383C148.268 197.181 148.842 196.852 149.329 196.394C149.812 195.925 150.154 195.366 150.356 194.717C150.555 194.056 150.558 193.337 150.366 192.56C150.217 191.96 149.985 191.449 149.668 191.028C149.364 190.604 148.994 190.271 148.559 190.028C148.122 189.774 147.656 189.609 147.162 189.531C146.669 189.453 146.172 189.464 145.672 189.563L147.606 197.383ZM156.147 198.192L153.047 185.659L155.024 185.17L157.434 194.914L161.714 183.515L163.568 183.056L166.668 195.589L164.691 196.078L162.32 186.493L158.071 197.716L156.147 198.192ZM179.572 194.926L178.983 192.543L169.574 194.87L166.474 182.337L168.451 181.848L171.119 192.634L176.715 191.249L174.046 180.464L176.041 179.97L178.709 190.756L180.298 190.363L181.32 194.494L179.572 194.926ZM182.833 191.59L179.732 179.057L181.709 178.568L184.12 188.312L188.399 176.913L190.253 176.455L193.353 188.988L191.376 189.477L189.005 179.892L184.757 191.114L182.833 191.59ZM196.778 174.841L198.649 174.378L206.621 185.706L204.538 186.221L202.372 183.141L197.535 184.338L197.071 188.068L194.971 188.588L196.778 174.841ZM201.621 181.772L198.25 176.78L197.525 182.785L201.621 181.772ZM216.309 183.309L213.641 172.523L209.457 173.558L209.963 175.906C210.309 177.606 210.518 179.034 210.592 180.19C210.663 181.334 210.588 182.27 210.369 182.999C210.147 183.716 209.787 184.279 209.289 184.69C208.788 185.088 208.143 185.385 207.355 185.58L206.927 183.85C207.362 183.743 207.72 183.548 208 183.266C208.277 182.973 208.462 182.534 208.554 181.949C208.659 181.361 208.658 180.575 208.551 179.59C208.454 178.59 208.244 177.337 207.921 175.83L207.171 172.269L215.203 170.282L218.304 182.816L216.309 183.309ZM221.152 182.111L218.052 169.578L220.029 169.089L221.173 173.713L223.98 173.019C224.898 172.792 225.709 172.766 226.414 172.941C227.117 173.105 227.705 173.44 228.18 173.947C228.656 174.454 228.992 175.107 229.19 175.908C229.376 176.661 229.386 177.383 229.22 178.073C229.051 178.752 228.702 179.338 228.175 179.83C227.647 180.323 226.942 180.678 226.06 180.897L221.152 182.111ZM222.723 179.98L225.371 179.325C225.924 179.188 226.345 178.972 226.634 178.675C226.935 178.376 227.124 178.03 227.201 177.636C227.276 177.23 227.262 176.822 227.16 176.41C227.061 176.01 226.891 175.652 226.651 175.337C226.422 175.019 226.105 174.797 225.7 174.673C225.295 174.548 224.798 174.559 224.209 174.704L221.579 175.355L222.723 179.98ZM239.324 164.315L242.424 176.849L240.429 177.342L239.063 171.817L232.743 173.38L234.11 178.905L232.133 179.394L229.032 166.861L231.009 166.372L232.306 171.615L238.626 170.052L237.329 164.809L239.324 164.315ZM245.251 176.149L242.151 163.616L244.128 163.127L245.272 167.752L248.079 167.057C248.997 166.83 249.808 166.804 250.513 166.98C251.228 167.14 251.816 167.475 252.28 167.985C252.755 168.492 253.091 169.146 253.289 169.946C253.475 170.699 253.485 171.421 253.319 172.111C253.15 172.79 252.801 173.376 252.274 173.869C251.746 174.361 251.041 174.717 250.159 174.935L245.251 176.149ZM246.822 174.018L249.47 173.363C250.023 173.226 250.45 173.008 250.751 172.709C251.051 172.41 251.234 172.065 251.3 171.674C251.375 171.269 251.361 170.86 251.259 170.448C251.16 170.048 250.99 169.69 250.75 169.375C250.522 169.057 250.205 168.836 249.799 168.711C249.405 168.584 248.908 168.594 248.308 168.743L245.678 169.393L246.822 174.018ZM256.249 173.429L253.153 160.913L255.147 160.42L258.243 172.935L256.249 173.429ZM261.13 172.221L258.03 159.688L260.007 159.199L262.417 168.943L266.697 157.544L268.55 157.085L271.651 169.618L269.674 170.107L267.303 160.522L263.054 171.745L261.13 172.221ZM263.08 157.539C262.445 157.696 261.873 157.732 261.364 157.645C260.853 157.547 260.436 157.35 260.113 157.056C259.788 156.749 259.571 156.378 259.463 155.943L260.893 155.589C260.972 155.907 261.161 156.166 261.46 156.366C261.771 156.564 262.221 156.59 262.81 156.445C263.386 156.302 263.769 156.083 263.958 155.786C264.147 155.49 264.196 155.159 264.106 154.794L265.536 154.44C265.643 154.876 265.625 155.305 265.48 155.728C265.332 156.139 265.054 156.508 264.648 156.833C264.25 157.144 263.728 157.379 263.08 157.539ZM165.826 217.431L162.725 204.898L172.628 202.448L175.729 214.981L173.734 215.474L171.066 204.689L165.135 206.156L167.803 216.942L165.826 217.431ZM179.083 200.851L180.954 200.388L188.927 211.716L186.844 212.231L184.677 209.152L179.84 210.348L179.377 214.078L177.276 214.598L179.083 200.851ZM183.926 207.783L180.556 202.791L179.831 208.796L183.926 207.783ZM190.477 211.332L187.376 198.799L192.637 197.498C193.201 197.358 193.748 197.348 194.277 197.467C194.806 197.586 195.295 197.796 195.744 198.097C196.193 198.398 196.572 198.766 196.88 199.202C197.187 199.638 197.404 200.109 197.529 200.615C197.701 201.309 197.706 202.014 197.546 202.728C197.394 203.427 197.078 204.042 196.597 204.573C196.128 205.101 195.517 205.459 194.764 205.645L191.375 206.483L192.454 210.843L190.477 211.332ZM190.943 204.736L194.208 203.928C194.585 203.835 194.89 203.653 195.123 203.383C195.353 203.101 195.501 202.765 195.566 202.374C195.644 201.981 195.627 201.56 195.516 201.113C195.403 200.654 195.208 200.271 194.933 199.965C194.657 199.658 194.343 199.449 193.99 199.336C193.647 199.209 193.298 199.189 192.945 199.276L189.786 200.058L190.943 204.736ZM208.003 195.551L203.838 196.582L206.506 207.367L204.511 207.861L201.843 197.075L197.659 198.11L197.227 196.362L207.571 193.803L208.003 195.551ZM219.543 190.842L222.644 203.375L220.649 203.868L219.282 198.343L212.963 199.907L214.329 205.432L212.352 205.921L209.252 193.388L211.229 192.899L212.526 198.141L218.845 196.578L217.548 191.335L219.543 190.842ZM233.635 198.801L234.068 200.549L225.471 202.675L222.37 190.142L230.808 188.055L231.24 189.803L224.78 191.401L225.662 194.967L231.258 193.582L231.664 195.224L226.068 196.608L227.016 200.439L233.635 198.801ZM236.107 200.044L233.007 187.511L238.267 186.21C238.832 186.07 239.379 186.06 239.908 186.179C240.437 186.298 240.926 186.507 241.375 186.808C241.824 187.11 242.202 187.478 242.51 187.914C242.818 188.35 243.034 188.821 243.159 189.327C243.331 190.021 243.337 190.725 243.176 191.439C243.024 192.139 242.708 192.754 242.228 193.285C241.759 193.813 241.148 194.17 240.395 194.357L237.005 195.195L238.084 199.555L236.107 200.044ZM236.573 193.448L239.839 192.64C240.215 192.546 240.52 192.365 240.753 192.095C240.983 191.813 241.131 191.477 241.197 191.086C241.274 190.692 241.257 190.272 241.147 189.825C241.033 189.366 240.839 188.983 240.563 188.676C240.287 188.37 239.973 188.16 239.621 188.048C239.277 187.921 238.929 187.901 238.576 187.988L235.416 188.77L236.573 193.448Z" fill="white"/>
<circle cx="205.902" cy="205.901" r="115.925" transform="rotate(-37.2627 205.902 205.901)" stroke="#EBFC56" stroke-width="1.81844" stroke-dasharray="9.09 9.09"/>
<path d="M146.163 243.832L149.906 237.507L156.22 241.277L158.396 237.595L148.41 231.631L142.49 241.641L146.163 243.832Z" fill="#EBFC56"/>
<path d="M140.951 244.239L138.774 247.92L142.446 250.113L144.623 246.432L140.951 244.239Z" fill="#EBFC56"/>
<path d="M147.222 247.98L153.534 251.749L157.277 245.418L160.949 247.608L160.948 247.61L155.028 257.623L145.044 251.662L145.039 251.659L147.222 247.98Z" fill="#EBFC56"/>
<path d="M160.986 239.142L158.809 242.824L162.481 245.016L164.658 241.335L160.986 239.142Z" fill="#EBFC56"/>
<path d="M154.684 243.87L150.959 241.644L149.326 244.405L149.137 244.722L148.751 245.376L148.748 245.383L148.753 245.386L152.477 247.608L154.685 243.872L154.687 243.872L154.684 243.87Z" fill="#EBFC56"/>
<path d="M167.516 233.476L173.878 231.856C175.456 231.455 176.753 231.557 177.77 232.166C178.556 232.638 179.068 233.34 179.305 234.27L179.315 234.309C179.415 234.703 179.454 235.063 179.435 235.389C179.414 235.716 179.355 236.022 179.253 236.306C179.153 236.589 179.019 236.85 178.852 237.09C178.684 237.329 178.493 237.544 178.281 237.738C179.151 237.838 179.881 238.089 180.469 238.493C181.057 238.896 181.467 239.557 181.7 240.475L181.71 240.514C181.871 241.144 181.89 241.725 181.77 242.26C181.649 242.794 181.403 243.276 181.032 243.705C180.662 244.136 180.18 244.508 179.587 244.827C178.993 245.147 178.312 245.403 177.543 245.599L171.024 247.258L167.516 233.476ZM174.658 237.591C175.325 237.421 175.825 237.172 176.159 236.842C176.493 236.512 176.595 236.09 176.464 235.579L176.454 235.54C176.337 235.08 176.078 234.772 175.677 234.616C175.276 234.461 174.754 234.462 174.114 234.625L171.132 235.384L171.873 238.298C171.874 238.3 174.658 237.591 174.658 237.591ZM176.877 242.939C177.544 242.77 178.036 242.516 178.353 242.177C178.669 241.838 178.763 241.412 178.633 240.899L178.623 240.86C178.506 240.4 178.237 240.082 177.815 239.903C177.393 239.724 176.791 239.735 176.006 239.935L172.516 240.823L173.288 243.855L176.877 242.939Z" fill="#EBFC56"/>
<path d="M182.944 229.545L185.964 228.776L189.472 242.561L186.453 243.329L182.944 229.545Z" fill="#EBFC56"/>
<path d="M190.544 227.612L193.329 226.904L201.92 233.754L199.76 225.267L202.741 224.508L206.249 238.293L203.681 238.946L194.803 231.876L197.033 240.638L194.053 241.397L190.544 227.612Z" fill="#EBFC56"/>
<path d="M211.855 222.083L214.64 221.375L224.057 233.76L220.9 234.563L218.858 231.791L213.054 233.268L212.586 236.68L209.507 237.463L211.855 222.083ZM217.097 229.389L214.136 225.383L213.45 230.317L217.097 229.389Z" fill="#EBFC56"/>
<path d="M223.811 219.146L226.596 218.438L235.187 225.288L233.027 216.801L236.008 216.042L239.516 229.826L236.948 230.48L228.07 223.409L230.3 232.172L227.32 232.931L223.811 219.146Z" fill="#EBFC56"/>
<path d="M250.44 227.296C249.432 227.553 248.45 227.606 247.495 227.46C246.539 227.314 245.666 226.998 244.877 226.521C244.087 226.045 243.405 225.418 242.833 224.641C242.259 223.865 241.847 222.984 241.597 221.998L241.587 221.959C241.336 220.974 241.277 220.007 241.412 219.057C241.547 218.107 241.843 217.229 242.305 216.418C242.767 215.608 243.389 214.905 244.169 214.309C244.949 213.712 245.871 213.279 246.93 213.009C247.57 212.846 248.168 212.751 248.724 212.721C249.28 212.691 249.798 212.714 250.275 212.787C250.754 212.862 251.209 212.983 251.642 213.152C252.075 213.322 252.488 213.525 252.882 213.759L251.527 216.474C250.868 216.123 250.225 215.883 249.599 215.749C248.973 215.615 248.314 215.636 247.621 215.813C247.047 215.959 246.542 216.206 246.108 216.554C245.674 216.903 245.332 217.318 245.078 217.802C244.827 218.286 244.667 218.812 244.603 219.382C244.539 219.951 244.582 220.53 244.732 221.119L244.742 221.158C244.892 221.75 245.132 222.283 245.462 222.757C245.792 223.232 246.179 223.624 246.626 223.927C247.072 224.234 247.57 224.439 248.12 224.544C248.669 224.649 249.238 224.627 249.825 224.477C250.61 224.278 251.235 223.965 251.703 223.538C252.172 223.113 252.611 222.581 253.02 221.946L255.438 223.407C255.182 223.879 254.902 224.313 254.601 224.711C254.3 225.109 253.948 225.474 253.554 225.806C253.157 226.137 252.707 226.428 252.199 226.676C251.693 226.918 251.106 227.126 250.44 227.296Z" fill="#EBFC56"/>
<path d="M256.056 210.939L266.39 208.309L267.077 211.006L259.723 212.878L260.435 215.674L266.905 214.027L267.592 216.725L261.122 218.372L261.859 221.267L269.31 219.37L269.997 222.068L259.564 224.723L256.056 210.939Z" fill="#EBFC56"/>
<defs>
<filter id="filter0_bii_1_234" x="73.4833" y="73.4819" width="264.838" height="264.838" filterUnits="userSpaceOnUse" color-interpolation-filters="sRGB">
<feFlood flood-opacity="0" result="BackgroundImageFix"/>
<feGaussianBlur in="BackgroundImageFix" stdDeviation="2.64825"/>
<feComposite in2="SourceAlpha" operator="in" result="effect1_backgroundBlur_1_234"/>
<feBlend mode="normal" in="SourceGraphic" in2="effect1_backgroundBlur_1_234" result="shape"/>
<feColorMatrix in="SourceAlpha" type="matrix" values="0 0 0 0 0 0 0 0 0 0 0 0 0 0 0 0 0 0 127 0" result="hardAlpha"/>
<feOffset dx="-15.578" dy="15.578"/>
<feGaussianBlur stdDeviation="7.78898"/>
<feComposite in2="hardAlpha" operator="arithmetic" k2="-1" k3="1"/>
<feColorMatrix type="matrix" values="0 0 0 0 1 0 0 0 0 1 0 0 0 0 1 0 0 0 0.03 0"/>
<feBlend mode="normal" in2="shape" result="effect2_innerShadow_1_234"/>
<feColorMatrix in="SourceAlpha" type="matrix" values="0 0 0 0 0 0 0 0 0 0 0 0 0 0 0 0 0 0 127 0" result="hardAlpha"/>
<feOffset dx="15.578" dy="-15.578"/>
<feGaussianBlur stdDeviation="7.78898"/>
<feComposite in2="hardAlpha" operator="arithmetic" k2="-1" k3="1"/>
<feColorMatrix type="matrix" values="0 0 0 0 0.646745 0 0 0 0 0.646745 0 0 0 0 0.646745 0 0 0 0.03 0"/>
<feBlend mode="normal" in2="effect2_innerShadow_1_234" result="effect3_innerShadow_1_234"/>
</filter>
</defs>
</svg>
