<svg width="75" height="75" viewBox="0 0 75 75" fill="none" xmlns="http://www.w3.org/2000/svg">
<g clip-path="url(#clip0_1_808)">
<g filter="url(#filter0_ii_1_808)">
<path d="M53.125 65.625V59.375C53.125 56.0598 51.808 52.8804 49.4638 50.5362C47.1196 48.192 43.9402 46.875 40.625 46.875H15.625C12.3098 46.875 9.13037 48.192 6.78617 50.5362C4.44196 52.8804 3.125 56.0598 3.125 59.375V65.625M71.875 65.625V59.375C71.8729 56.6054 70.9511 53.9149 69.2543 51.726C67.5574 49.5371 65.1817 47.9736 62.5 47.2812M50 9.78125C52.6888 10.4697 55.072 12.0334 56.7739 14.226C58.4757 16.4185 59.3995 19.1151 59.3995 21.8906C59.3995 24.6662 58.4757 27.3627 56.7739 29.5553C55.072 31.7478 52.6888 33.3116 50 34M40.625 21.875C40.625 28.7786 35.0286 34.375 28.125 34.375C21.2214 34.375 15.625 28.7786 15.625 21.875C15.625 14.9714 21.2214 9.375 28.125 9.375C35.0286 9.375 40.625 14.9714 40.625 21.875Z" stroke="black" stroke-width="9.375" stroke-linecap="round" stroke-linejoin="round"/>
</g>
</g>
<defs>
<filter id="filter0_ii_1_808" x="-4.6875" y="4.6875" width="84.375" height="68.75" filterUnits="userSpaceOnUse" color-interpolation-filters="sRGB">
<feFlood flood-opacity="0" result="BackgroundImageFix"/>
<feBlend mode="normal" in="SourceGraphic" in2="BackgroundImageFix" result="shape"/>
<feColorMatrix in="SourceAlpha" type="matrix" values="0 0 0 0 0 0 0 0 0 0 0 0 0 0 0 0 0 0 127 0" result="hardAlpha"/>
<feOffset dx="-3.125" dy="3.125"/>
<feGaussianBlur stdDeviation="3.125"/>
<feComposite in2="hardAlpha" operator="arithmetic" k2="-1" k3="1"/>
<feColorMatrix type="matrix" values="0 0 0 0 1 0 0 0 0 1 0 0 0 0 1 0 0 0 0.25 0"/>
<feBlend mode="normal" in2="shape" result="effect1_innerShadow_1_808"/>
<feColorMatrix in="SourceAlpha" type="matrix" values="0 0 0 0 0 0 0 0 0 0 0 0 0 0 0 0 0 0 127 0" result="hardAlpha"/>
<feOffset dx="3.125" dy="3.125"/>
<feGaussianBlur stdDeviation="4.6875"/>
<feComposite in2="hardAlpha" operator="arithmetic" k2="-1" k3="1"/>
<feColorMatrix type="matrix" values="0 0 0 0 0.2 0 0 0 0 0.199167 0 0 0 0 0.199217 0 0 0 0.1 0"/>
<feBlend mode="normal" in2="effect1_innerShadow_1_808" result="effect2_innerShadow_1_808"/>
</filter>
<clipPath id="clip0_1_808">
<rect width="75" height="75" fill="white"/>
</clipPath>
</defs>
</svg>
