<svg width="78" height="78" viewBox="0 0 78 78" fill="none" xmlns="http://www.w3.org/2000/svg">
<g clip-path="url(#clip0_1_809)">
<g filter="url(#filter0_ii_1_809)">
<path d="M52 68.25V61.75C52 58.3022 50.6304 54.9956 48.1924 52.5576C45.7544 50.1196 42.4478 48.75 39 48.75H16.25C12.8022 48.75 9.49558 50.1196 7.05761 52.5576C4.61964 54.9956 3.25 58.3022 3.25 61.75V68.25M65 26V45.5M74.75 35.75H55.25M40.625 22.75C40.625 29.9297 34.8047 35.75 27.625 35.75C20.4453 35.75 14.625 29.9297 14.625 22.75C14.625 15.5703 20.4453 9.75 27.625 9.75C34.8047 9.75 40.625 15.5703 40.625 22.75Z" stroke="black" stroke-width="9.75" stroke-linecap="round" stroke-linejoin="round"/>
</g>
</g>
<defs>
<filter id="filter0_ii_1_809" x="-4.875" y="4.875" width="87.75" height="71.5" filterUnits="userSpaceOnUse" color-interpolation-filters="sRGB">
<feFlood flood-opacity="0" result="BackgroundImageFix"/>
<feBlend mode="normal" in="SourceGraphic" in2="BackgroundImageFix" result="shape"/>
<feColorMatrix in="SourceAlpha" type="matrix" values="0 0 0 0 0 0 0 0 0 0 0 0 0 0 0 0 0 0 127 0" result="hardAlpha"/>
<feOffset dx="-3.25" dy="3.25"/>
<feGaussianBlur stdDeviation="3.25"/>
<feComposite in2="hardAlpha" operator="arithmetic" k2="-1" k3="1"/>
<feColorMatrix type="matrix" values="0 0 0 0 1 0 0 0 0 1 0 0 0 0 1 0 0 0 0.25 0"/>
<feBlend mode="normal" in2="shape" result="effect1_innerShadow_1_809"/>
<feColorMatrix in="SourceAlpha" type="matrix" values="0 0 0 0 0 0 0 0 0 0 0 0 0 0 0 0 0 0 127 0" result="hardAlpha"/>
<feOffset dx="3.25" dy="3.25"/>
<feGaussianBlur stdDeviation="4.875"/>
<feComposite in2="hardAlpha" operator="arithmetic" k2="-1" k3="1"/>
<feColorMatrix type="matrix" values="0 0 0 0 0.2 0 0 0 0 0.199167 0 0 0 0 0.199217 0 0 0 0.1 0"/>
<feBlend mode="normal" in2="effect1_innerShadow_1_809" result="effect2_innerShadow_1_809"/>
</filter>
<clipPath id="clip0_1_809">
<rect width="78" height="78" fill="white"/>
</clipPath>
</defs>
</svg>
